<svg width="240" height="64" viewBox="0 0 240 64" fill="none" xmlns="http://www.w3.org/2000/svg">
  <rect x="2" y="2" width="60" height="60" rx="14" fill="#11FF66" fill-opacity="0.12" stroke="#11FF66" stroke-width="4"/>
  <path d="M20 32C20 24.268 26.268 18 34 18C41.732 18 48 24.268 48 32C48 39.732 41.732 46 34 46C26.268 46 20 39.732 20 32ZM26 32C26 36.418 29.582 40 34 40C38.418 40 42 36.418 42 32C42 27.582 38.418 24 34 24C29.582 24 26 27.582 26 32Z" fill="#11FF66"/>
  <path d="M95.3 44L84.4 27.6V44H77.6V18.2H84.9L95.3 33.9V18.2H102.1V44H95.3Z" fill="#E7F8FF"/>
  <path d="M119.4 44.6C116.587 44.6 114.027 44.12 111.72 43.16C109.413 42.2 107.587 40.8933 106.24 39.24L110.2 34.24C112.64 36.84 115.693 38.14 119.36 38.14C120.72 38.14 121.787 37.9 122.56 37.42C123.36 36.94 123.76 36.28 123.76 35.44C123.76 34.8667 123.533 34.3733 123.08 33.96C122.653 33.52 122.093 33.1733 121.4 32.92C120.707 32.6667 119.893 32.4133 118.96 32.16C118.053 31.9067 117.133 31.6267 116.2 31.32C115.267 31.0133 114.44 30.6267 113.72 30.16C113 29.6933 112.427 29.0533 112 28.24C111.573 27.4267 111.36 26.44 111.36 25.28C111.36 23.1733 112.2 21.4133 113.88 20C115.56 18.56 117.867 17.84 120.8 17.84C125.013 17.84 128.413 19.2133 131 21.96L127.04 26.72C124.947 24.6267 122.2 23.58 118.8 23.58C117.787 23.58 116.987 23.7933 116.4 24.22C115.813 24.62 115.52 25.1867 115.52 25.92C115.52 26.4667 115.733 26.9467 116.16 27.36C116.587 27.7467 117.147 28.0667 117.84 28.32C118.56 28.5733 119.373 28.84 120.28 29.12C121.213 29.3733 122.133 29.6667 123.04 30C123.973 30.3067 124.787 30.7067 125.48 31.2C126.2 31.6933 126.773 32.36 127.2 33.2C127.653 34.0133 127.88 35 127.88 36.16C127.88 38.48 127.053 40.3867 125.4 41.88C123.773 43.36 121.773 44.2667 119.4 44.6Z" fill="#E7F8FF"/>
  <path d="M143.3 44L136 32.8L128.8 44H120.9L131.7 30.8L121.4 18.2H129.4L136 28.5L142.6 18.2H150.5L140.3 30.8L151.1 44H143.3Z" fill="#11FF66"/>
</svg>
